<svg xmlns="http://www.w3.org/2000/svg" viewBox="0 0 128 128" width="128" height="128">
  <rect width="128" height="128" rx="24" fill="#008069"/>
  <path d="M64 20c-24.3 0-44 19.7-44 44 0 15.4 8 29.4 20.5 38.2L36 116l14.2-3.8c8.5 4.6 18.2 7.3 28.3 7.3 24.3 0 44-19.7 44-44S88.3 20 64 20z" fill="#fff"/>
  <path d="M78 58c-2.2 0-4-1.8-4-4 0-2.2 1.8-4 4-4 2.2 0 4 1.8 4 4 0 2.2-1.8 4-4 4zM58 58c-2.2 0-4-1.8-4-4 0-2.2 1.8-4 4-4 2.2 0 4 1.8 4 4 0 2.2-1.8 4-4 4zM78 78c-2.2 0-4-1.8-4-4 0-2.2 1.8-4 4-4 2.2 0 4 1.8 4 4 0 2.2-1.8 4-4 4zM58 78c-2.2 0-4-1.8-4-4 0-2.2 1.8-4 4-4 2.2 0 4 1.8 4 4 0 2.2-1.8 4-4 4zM68 68c-2.2 0-4-1.8-4-4 0-2.2 1.8-4 4-4 2.2 0 4 1.8 4 4 0 2.2-1.8 4-4 4z" fill="#008069"/>
</svg>
